<svg width="312" height="110" viewBox="0 0 312 110" fill="none" xmlns="http://www.w3.org/2000/svg">
<circle cx="55" cy="55" r="55" fill="#EC994B"/>
<path d="M34.4958 73.2347C31.4452 73.2347 28.6878 72.5307 26.2238 71.1227C23.7989 69.6756 21.8629 67.72 20.4158 65.256C19.0078 62.792 18.3038 60.0151 18.3038 56.9253C18.3038 53.8356 18.9492 51.0782 20.2398 48.6533C21.5696 46.1893 23.3687 44.2533 25.6372 42.8453C27.9056 41.3982 30.4674 40.6747 33.3225 40.6747C35.6301 40.6747 37.7616 41.1636 39.7172 42.1413C41.6727 43.08 43.3154 44.3707 44.6452 46.0133V30.1733C44.6452 29.2738 44.919 28.5502 45.4665 28.0027C46.0532 27.4551 46.7767 27.1813 47.6372 27.1813C48.5367 27.1813 49.2603 27.4551 49.8078 28.0027C50.3554 28.5502 50.6292 29.2738 50.6292 30.1733V56.9253C50.6292 60.0151 49.9056 62.792 48.4585 65.256C47.0505 67.72 45.1341 69.6756 42.7092 71.1227C40.2843 72.5307 37.5465 73.2347 34.4958 73.2347ZM34.4958 67.9547C36.4905 67.9547 38.2701 67.4853 39.8345 66.5467C41.3989 65.5689 42.6309 64.2391 43.5305 62.5573C44.4301 60.8756 44.8798 58.9982 44.8798 56.9253C44.8798 54.8133 44.4301 52.936 43.5305 51.2933C42.6309 49.6507 41.3989 48.36 39.8345 47.4213C38.2701 46.4436 36.4905 45.9547 34.4958 45.9547C32.5403 45.9547 30.7607 46.4436 29.1572 47.4213C27.5927 48.36 26.3412 49.6507 25.4025 51.2933C24.5029 52.936 24.0532 54.8133 24.0532 56.9253C24.0532 58.9982 24.5029 60.8756 25.4025 62.5573C26.3412 64.2391 27.5927 65.5689 29.1572 66.5467C30.7607 67.4853 32.5403 67.9547 34.4958 67.9547ZM63.3085 86.728C62.4481 86.728 61.7245 86.4347 61.1378 85.848C60.5903 85.3004 60.3165 84.5964 60.3165 83.736V56.984C60.3556 53.8942 61.0792 51.1173 62.4872 48.6533C63.8952 46.1893 65.8116 44.2533 68.2365 42.8453C70.6614 41.3982 73.3992 40.6747 76.4498 40.6747C79.5396 40.6747 82.297 41.3982 84.7218 42.8453C87.1467 44.2533 89.0632 46.1893 90.4712 48.6533C91.9183 51.1173 92.6418 53.8942 92.6418 56.984C92.6418 60.0738 91.977 62.8507 90.6472 65.3147C89.3565 67.7396 87.5769 69.6756 85.3085 71.1227C83.0401 72.5307 80.4783 73.2347 77.6232 73.2347C75.3156 73.2347 73.1841 72.7653 71.2285 71.8267C69.3121 70.8489 67.6694 69.5387 66.3005 67.896V83.736C66.3005 84.5964 66.0267 85.3004 65.4792 85.848C64.9316 86.4347 64.2081 86.728 63.3085 86.728ZM76.4498 67.9547C78.4445 67.9547 80.2241 67.4853 81.7885 66.5467C83.3529 65.5689 84.5849 64.2587 85.4845 62.616C86.4232 60.9342 86.8925 59.0569 86.8925 56.984C86.8925 54.872 86.4232 52.9947 85.4845 51.352C84.5849 49.6702 83.3529 48.36 81.7885 47.4213C80.2241 46.4436 78.4445 45.9547 76.4498 45.9547C74.4943 45.9547 72.7147 46.4436 71.1112 47.4213C69.5467 48.36 68.3147 49.6702 67.4152 51.352C66.5156 52.9947 66.0658 54.872 66.0658 56.984C66.0658 59.0569 66.5156 60.9342 67.4152 62.616C68.3147 64.2587 69.5467 65.5689 71.1112 66.5467C72.7147 67.4853 74.4943 67.9547 76.4498 67.9547Z" fill="#114162"/>
<path d="M144.496 76.9013C141.445 76.9013 138.688 76.1973 136.224 74.7893C133.799 73.3422 131.863 71.3867 130.416 68.9227C129.008 66.4587 128.304 63.6818 128.304 60.592C128.304 57.5022 128.949 54.7449 130.24 52.32C131.57 49.856 133.369 47.92 135.637 46.512C137.906 45.0649 140.467 44.3413 143.323 44.3413C145.63 44.3413 147.762 44.8302 149.717 45.808C151.673 46.7467 153.315 48.0373 154.645 49.68V33.84C154.645 32.9404 154.919 32.2169 155.467 31.6693C156.053 31.1218 156.777 30.848 157.637 30.848C158.537 30.848 159.26 31.1218 159.808 31.6693C160.355 32.2169 160.629 32.9404 160.629 33.84V60.592C160.629 63.6818 159.906 66.4587 158.459 68.9227C157.051 71.3867 155.134 73.3422 152.709 74.7893C150.284 76.1973 147.547 76.9013 144.496 76.9013ZM144.496 71.6213C146.491 71.6213 148.27 71.152 149.835 70.2133C151.399 69.2355 152.631 67.9058 153.531 66.224C154.43 64.5422 154.88 62.6649 154.88 60.592C154.88 58.48 154.43 56.6027 153.531 54.96C152.631 53.3173 151.399 52.0267 149.835 51.088C148.27 50.1102 146.491 49.6213 144.496 49.6213C142.54 49.6213 140.761 50.1102 139.157 51.088C137.593 52.0267 136.341 53.3173 135.403 54.96C134.503 56.6027 134.053 58.48 134.053 60.592C134.053 62.6649 134.503 64.5422 135.403 66.224C136.341 67.9058 137.593 69.2355 139.157 70.2133C140.761 71.152 142.54 71.6213 144.496 71.6213ZM184.866 76.9013C181.698 76.9013 178.901 76.2169 176.477 74.848C174.052 73.44 172.135 71.5235 170.727 69.0987C169.358 66.6347 168.674 63.8187 168.674 60.6507C168.674 57.4435 169.358 54.6275 170.727 52.2027C172.135 49.7387 174.052 47.8222 176.477 46.4533C178.901 45.0453 181.698 44.3413 184.866 44.3413C187.995 44.3413 190.772 45.0453 193.197 46.4533C195.621 47.8222 197.518 49.7387 198.887 52.2027C200.295 54.6275 200.999 57.4435 200.999 60.6507C200.999 63.8187 200.315 66.6347 198.946 69.0987C197.577 71.5235 195.68 73.44 193.255 74.848C190.83 76.2169 188.034 76.9013 184.866 76.9013ZM184.866 71.6213C186.9 71.6213 188.699 71.152 190.263 70.2133C191.828 69.2747 193.04 67.984 193.901 66.3413C194.8 64.6987 195.25 62.8018 195.25 60.6507C195.25 58.4995 194.8 56.6027 193.901 54.96C193.04 53.2782 191.828 51.968 190.263 51.0293C188.699 50.0907 186.9 49.6213 184.866 49.6213C182.832 49.6213 181.033 50.0907 179.469 51.0293C177.904 51.968 176.672 53.2782 175.773 54.96C174.873 56.6027 174.423 58.4995 174.423 60.6507C174.423 62.8018 174.873 64.6987 175.773 66.3413C176.672 67.984 177.904 69.2747 179.469 70.2133C181.033 71.152 182.832 71.6213 184.866 71.6213ZM220.7 76.6667C218.744 76.6667 216.984 76.1778 215.42 75.2C213.855 74.1831 212.623 72.8142 211.724 71.0933C210.824 69.3724 210.374 67.4364 210.374 65.2853V37.3013C210.374 36.4409 210.648 35.7369 211.196 35.1893C211.743 34.6418 212.447 34.368 213.308 34.368C214.168 34.368 214.872 34.6418 215.42 35.1893C215.967 35.7369 216.241 36.4409 216.241 37.3013V65.2853C216.241 66.8498 216.671 68.16 217.532 69.216C218.392 70.272 219.448 70.8 220.7 70.8H222.694C223.398 70.8 223.985 71.0738 224.454 71.6213C224.963 72.1689 225.217 72.8729 225.217 73.7333C225.217 74.5938 224.885 75.2978 224.22 75.8453C223.594 76.3929 222.773 76.6667 221.756 76.6667H220.7ZM207.676 50.7947C206.854 50.7947 206.189 50.56 205.681 50.0907C205.173 49.6213 204.918 49.0347 204.918 48.3307C204.918 47.5484 205.173 46.9227 205.681 46.4533C206.189 45.984 206.854 45.7493 207.676 45.7493H221.228C222.049 45.7493 222.714 45.984 223.222 46.4533C223.731 46.9227 223.985 47.5484 223.985 48.3307C223.985 49.0347 223.731 49.6213 223.222 50.0907C222.714 50.56 222.049 50.7947 221.228 50.7947H207.676ZM245.068 76.9013C242.213 76.9013 239.651 76.1973 237.383 74.7893C235.114 73.3422 233.315 71.4062 231.985 68.9813C230.695 66.5173 230.049 63.7404 230.049 60.6507C230.049 57.5609 230.753 54.784 232.161 52.32C233.608 49.856 235.544 47.92 237.969 46.512C240.433 45.0649 243.191 44.3413 246.241 44.3413C249.292 44.3413 252.03 45.0649 254.455 46.512C256.879 47.92 258.796 49.856 260.204 52.32C261.651 54.784 262.375 57.5609 262.375 60.6507H260.087C260.087 63.7404 259.422 66.5173 258.092 68.9813C256.801 71.4062 255.022 73.3422 252.753 74.7893C250.485 76.1973 247.923 76.9013 245.068 76.9013ZM246.241 71.6213C248.236 71.6213 250.015 71.152 251.58 70.2133C253.144 69.2355 254.376 67.9253 255.276 66.2827C256.175 64.6009 256.625 62.7235 256.625 60.6507C256.625 58.5387 256.175 56.6613 255.276 55.0187C254.376 53.3369 253.144 52.0267 251.58 51.088C250.015 50.1102 248.236 49.6213 246.241 49.6213C244.286 49.6213 242.506 50.1102 240.903 51.088C239.338 52.0267 238.087 53.3369 237.148 55.0187C236.248 56.6613 235.799 58.5387 235.799 60.6507C235.799 62.7235 236.248 64.6009 237.148 66.2827C238.087 67.9253 239.338 69.2355 240.903 70.2133C242.506 71.152 244.286 71.6213 246.241 71.6213ZM259.383 76.7253C258.522 76.7253 257.799 76.4515 257.212 75.904C256.664 75.3173 256.391 74.5938 256.391 73.7333V64.7573L257.505 58.5387L262.375 60.6507V73.7333C262.375 74.5938 262.081 75.3173 261.495 75.904C260.947 76.4515 260.243 76.7253 259.383 76.7253ZM273.392 90.3947C272.532 90.3947 271.808 90.1013 271.222 89.5147C270.674 88.9671 270.4 88.2631 270.4 87.4027V60.6507C270.44 57.5609 271.163 54.784 272.571 52.32C273.979 49.856 275.896 47.92 278.32 46.512C280.745 45.0649 283.483 44.3413 286.534 44.3413C289.624 44.3413 292.381 45.0649 294.806 46.512C297.231 47.92 299.147 49.856 300.555 52.32C302.002 54.784 302.726 57.5609 302.726 60.6507C302.726 63.7404 302.061 66.5173 300.731 68.9813C299.44 71.4062 297.661 73.3422 295.392 74.7893C293.124 76.1973 290.562 76.9013 287.707 76.9013C285.4 76.9013 283.268 76.432 281.312 75.4933C279.396 74.5155 277.753 73.2053 276.384 71.5627V87.4027C276.384 88.2631 276.111 88.9671 275.563 89.5147C275.016 90.1013 274.292 90.3947 273.392 90.3947ZM286.534 71.6213C288.528 71.6213 290.308 71.152 291.872 70.2133C293.437 69.2355 294.669 67.9253 295.568 66.2827C296.507 64.6009 296.976 62.7235 296.976 60.6507C296.976 58.5387 296.507 56.6613 295.568 55.0187C294.669 53.3369 293.437 52.0267 291.872 51.088C290.308 50.1102 288.528 49.6213 286.534 49.6213C284.578 49.6213 282.799 50.1102 281.195 51.088C279.631 52.0267 278.399 53.3369 277.499 55.0187C276.6 56.6613 276.15 58.5387 276.15 60.6507C276.15 62.7235 276.6 64.6009 277.499 66.2827C278.399 67.9253 279.631 69.2355 281.195 70.2133C282.799 71.152 284.578 71.6213 286.534 71.6213Z" fill="#EC994B"/>
</svg>
